<svg width="24" height="24" viewBox="0 0 24 24" fill="none" xmlns="http://www.w3.org/2000/svg">
<path fill-rule="evenodd" clip-rule="evenodd" d="M3.25 3.5C3.25 2.25736 4.25736 1.25 5.5 1.25H10.5C11.6581 1.25 12.6119 2.12501 12.7363 3.25H18.0362C19.4665 3.25 20.2928 4.8726 19.4515 6.0293L17.4621 8.76479C17.1433 9.2031 17.1433 9.7969 17.4621 10.2352L19.4515 12.9707C20.2928 14.1274 19.4665 15.75 18.0362 15.75H13C12.0335 15.75 11.25 14.9665 11.25 14V13.622C11.0154 13.7049 10.763 13.75 10.5 13.75H4.75L4.75 22C4.75 22.4142 4.41421 22.75 4 22.75C3.58579 22.75 3.25 22.4142 3.25 22V3.5ZM4.75 12.25H10.5C10.9142 12.25 11.25 11.9142 11.25 11.5V3.5C11.25 3.08579 10.9142 2.75 10.5 2.75H5.5C5.08579 2.75 4.75 3.08579 4.75 3.5V12.25ZM12.75 4.75H18.0362C18.2406 4.75 18.3586 4.9818 18.2384 5.14704L16.249 7.88253C15.5477 8.84682 15.5477 10.1532 16.249 11.1175L18.2384 13.853C18.3586 14.0182 18.2406 14.25 18.0362 14.25H13C12.8619 14.25 12.75 14.1381 12.75 14V4.75Z" fill="#2B3F6C"/>
</svg>
